<svg version="1.2" xmlns="http://www.w3.org/2000/svg" viewBox="0 0 24 30" width="19" height="24">
	<title>app-store</title>
	<style>
		.s0 { fill: #666666 } 
	</style>
	<path class="s0" d="m19.9 16c-0.1-3.7 2.9-5.4 3.1-5.5-1.7-2.5-4.3-2.8-5.3-2.8-2.2-0.3-4.3 1.3-5.5 1.3-1.1 0-2.9-1.3-4.7-1.3-2.4 0.1-4.7 1.5-5.9 3.6-2.6 4.4-0.7 10.9 1.8 14.5 1.2 1.7 2.6 3.7 4.5 3.6 1.8-0.1 2.5-1.2 4.7-1.2 2.2 0 2.8 1.2 4.7 1.1 2 0 3.2-1.7 4.4-3.5 1.4-2 2-4 2-4.1 0 0-3.8-1.4-3.8-5.7zm-3.6-10.7c0.9-1.2 1.6-2.9 1.4-4.6-1.4 0.1-3.2 1-4.2 2.2-0.9 1.1-1.7 2.8-1.5 4.4 1.6 0.1 3.3-0.8 4.3-2z"/>
</svg>