<svg version="1.2" xmlns="http://www.w3.org/2000/svg" viewBox="0 0 28 28" width="24" height="24">
	<title>huawei</title>
	<style>
		.s0 { fill: #666666 } 
	</style>
	<path fill-rule="evenodd" class="s0" d="m28 7.9v12.2c0 5.8-2.1 7.9-7.9 7.9h-12.2c-5.8 0-7.9-2.1-7.9-7.9v-12.2c0-5.8 2.1-7.9 7.9-7.9h12.2c5.8 0 7.9 2.1 7.9 7.9zm-22.4 7.6h-1.7v-1.5h-0.8v3.7h0.8v-1.5h1.7v1.5h0.7v-3.7h-0.7zm4.1 0.6q0 0.9-0.8 0.9c-0.5 0-0.8-0.3-0.8-0.9v-2.1h-0.8v2.1c0 1.1 0.6 1.6 1.6 1.6 1 0 1.6-0.6 1.6-1.6v-2.1h-0.8v2.1zm8.6 0.4l-0.9-2.5h-0.6l-0.8 2.5-0.8-2.5h-0.8l1.3 3.7h0.6l0.9-2.4 0.8 2.4h0.6l1.3-3.7h-0.8zm4.3-0.4v-0.7h-1.4v-0.7h2v-0.7h-2.7v3.7h2.7v-0.7h-2v-0.9zm1.6 1.6h0.7v-3.7h-0.7zm-10.6-0.8l0.4 0.8h0.7l-1.6-3.7h-0.6l-1.6 3.7h0.7l0.4-0.8zm-0.9-1.9l0.6 1.3h-1.1zm-3.5-10.3c0 2.6 2.1 4.7 4.7 4.7 2.6 0 4.7-2.1 4.6-4.7h-0.6c0 2.2-1.8 4-4 4-2.2 0-4-1.8-4-4z"/>
</svg>